. 
 
http://www.torrenting.com          :     Once & For all ;)


               www . Torrenting . Com 

(((((((((((((= Enjoy No RAR releases =))))))))))))))))))))


...................................NFO:....................................

.








































          
          
              
              
                    
                    
                    
                    

The.Rum.Diary.2011.DVDRiP.AC3-5.1.XviD-SiC

Poster:
[img]http://img831.imageshack.us/img831/686/therumdiary20115497post.jpg[/img]

IMDB Link:
http://www.imdb.com/title/tt0376136/

Description:
American journalist Paul Kemp takes on a freelance job in Puerto Rico for a local newspaper during the 1950s and struggles to find a balance between island culture and the expatriates who live there.  

MediaInfo:
General
Complete name                    : E:\Customize
umdiary\VIDEO_TS\The.Rum.Diary.2011,DVDRiP.AC3-5.1.XviD-SiC.avi
Format                           : AVI
Format/Info                      : Audio Video Interleave
File size                        : 1.76 GiB
Duration                         : 1h 59mn
Overall bit rate                 : 2 096 Kbps

Video
ID                               : 0
Format                           : MPEG-4 Visual
Format profile                   : Advanced Simple@L5
Format settings, BVOP            : 1
Format settings, QPel            : No
Format settings, GMC             : No warppoints
Format settings, Matrix          : Default (H.263)
Codec ID                         : XVID
Codec ID/Hint                    : XviD
Duration                         : 1h 59mn
Bit rate                         : 1 640 Kbps
Width                            : 720 pixels
Height                           : 384 pixels
Display aspect ratio             : 1.875
Frame rate                       : 23.976 fps
Color space                      : YUV
Chroma subsampling               : 4:2:0
Bit depth                        : 8 bits
Scan type                        : Progressive
Compression mode                 : Lossy
Bits/(Pixel*Frame)               : 0.247
Stream size                      : 1.37 GiB (78%)
Writing library                  : XviD 1.2.1 (UTC 2008-12-04)

Audio
ID                               : 1
Format                           : AC-3
Format/Info                      : Audio Coding 3
Mode extension                   : CM (complete main)
Codec ID                         : 2000
Duration                         : 1h 59mn
Bit rate mode                    : Constant
Bit rate                         : 448 Kbps
Channel(s)                       : 6 channels
Channel positions                : Front: L C R, Side: L R, LFE
Sampling rate                    : 48.0 KHz
Bit depth                        : 16 bits
Compression mode                 : Lossy
Stream size                      : 384 MiB (21%)
Alignment                        : Aligned on interleaves
Interleave, duration             : 64 ms (1.53 video frames)
Interleave, preload duration     : 192 ms
Title                            : VTS_01_1 T80 3_2ch 448Kbps DELAY 0ms

Screenshots:
[img]http://img824.imageshack.us/img824/3770/vlcsnap2012012420h57m31.png[/img]
[img]http://img521.imageshack.us/img521/3411/vlcsnap2012012420h57m37.png[/img]
[img]http://img687.imageshack.us/img687/9352/vlcsnap2012012420h57m44.png[/img]
[img]http://img513.imageshack.us/img513/1273/vlcsnap2012012420h57m53.png[/img]
[img]http://img849.imageshack.us/img849/3550/vlcsnap2012012420h58m04.png[/img]


Note : Nothing unusual here, just ripped and encoded straight from the retail disc.      

Source: Our own

Enjoy!

Respects to T00NG0D, CM8, Rx, ELEKTRI4KA, PA, YeFsTe, MrRep and everyone in the struggle...RiP MU